<svg width="36" height="37" xmlns="http://www.w3.org/2000/svg" xmlns:xlink="http://www.w3.org/1999/xlink">
    <defs>
        <radialGradient cx="26.563%" cy="107.702%" fx="26.563%" fy="107.702%" r="99.107%" id="b">
            <stop stop-color="#FD5" offset="0%"/>
            <stop stop-color="#FD5" offset="10%"/>
            <stop stop-color="#FF543E" offset="50%"/>
            <stop stop-color="#C837AB" offset="100%"/>
        </radialGradient>
        <circle id="a" cx="18" cy="18" r="15"/>
    </defs>
    <g transform="translate(0 .217)" fill="none" fill-rule="evenodd">
        <circle fill="#FFF" cx="18" cy="18" r="18"/>
        <mask id="c" fill="#fff">
            <use xlink:href="#a"/>
        </mask>
        <use fill="url(#b)" fill-rule="nonzero" xlink:href="#a"/>
        <path d="M14.29 9.054c-.958.044-1.612.196-2.185.418a4.407 4.407 0 0 0-1.594 1.038c-.5.5-.808 1.003-1.039 1.594-.223.573-.375 1.227-.418 2.185C9.011 15.249 9 15.556 9 18s.01 2.75.054 3.71c.044.958.196 1.612.419 2.184a4.41 4.41 0 0 0 1.038 1.595c.5.5 1.002.809 1.593 1.038.573.223 1.227.375 2.185.419.96.043 1.267.054 3.71.054 2.445 0 2.751-.01 3.711-.054.958-.044 1.613-.196 2.186-.419a4.403 4.403 0 0 0 1.593-1.038c.5-.5.808-1.003 1.038-1.594.222-.573.374-1.227.419-2.185.043-.96.054-1.266.054-3.71s-.011-2.751-.054-3.711c-.045-.958-.197-1.612-.419-2.184a4.417 4.417 0 0 0-1.038-1.595c-.5-.5-1.002-.808-1.594-1.037-.574-.223-1.228-.375-2.186-.419-.96-.043-1.266-.054-3.711-.054-2.441 0-2.748.01-3.708.054zM18 10.622c2.404 0 2.689.008 3.638.052.877.04 1.353.186 1.67.31.42.163.72.358 1.035.673.315.315.51.615.673 1.035.124.317.27.793.31 1.67.043.95.053 1.234.053 3.636s-.01 2.687-.053 3.636c-.04.877-.186 1.353-.31 1.67-.163.42-.358.72-.673 1.034-.315.315-.614.51-1.034.673-.317.124-.794.27-1.671.31-.95.043-1.234.053-3.637.053s-2.688-.01-3.637-.053c-.877-.04-1.354-.187-1.671-.31a2.788 2.788 0 0 1-1.035-.673 2.79 2.79 0 0 1-.674-1.035c-.123-.316-.27-.793-.31-1.67-.043-.949-.051-1.234-.051-3.637 0-2.404.008-2.687.051-3.636.04-.877.187-1.354.31-1.67.163-.42.359-.72.674-1.036.315-.315.615-.51 1.035-.673.317-.124.794-.27 1.671-.31.83-.038 1.152-.05 2.83-.051.24.002.506.002.807.002zm3.725 2.574a1.08 1.08 0 1 0 2.16 0 1.08 1.08 0 0 0-2.16 0zM13.379 18a4.621 4.621 0 1 0 9.243 0 4.621 4.621 0 0 0-9.243 0zM18 15a3 3 0 1 1 0 6 3 3 0 0 1 0-6z" fill="#FFF" fill-rule="nonzero" mask="url(#c)"/>
    </g>
</svg>
