<svg
   xmlns="http://www.w3.org/2000/svg"
   width="24"
   height="24"
   viewBox="0 0 24 24">
  <g
     transform="matrix(0.02882377,0,0,0.02882377,0.92876112,1.0863407)">
      <path
         d="M 692.018,378.532 C 691.816,293.478 657.593,216.322 601.699,160.428 549.248,107.977 478.369,74.767 399.593,70.312 L 384.405,70.11 c -84.851,0 -162.21,34.425 -218.104,90.319 -55.894,55.894 -90.319,133.05 -90.319,217.901 0,170.31 138.113,308.828 308.423,308.828 l 307.815,-0.405 -0.202,-308.22 z M 533.048,535.275 H 384 C 251.355,535.477 185.336,372.66 278.696,280.515 c 11.542,-11.34 24.502,-20.858 39.086,-28.148 14.782,-7.493 30.983,-12.353 47.389,-14.377 18.022,-2.43 36.454,-1.418 54.274,3.037 15.795,3.847 30.982,10.327 44.756,19.237 9.112,5.873 17.415,12.555 25.11,20.25 27.135,26.933 43.744,64.196 43.744,105.506 v 149.25 z"
      />
  </g>
</svg>
