<?xml version="1.0" encoding="UTF-8"?>
<svg width="46px" height="46px" viewBox="0 0 46 46" version="1.1" xmlns="http://www.w3.org/2000/svg" xmlns:xlink="http://www.w3.org/1999/xlink">
    <path d="M35.1338152,29.4144358 C35.3818425,29.6624631 35.4066452,30.0491844 35.2082234,30.3249505 L35.1338152,30.4124206 L33.3435909,32.2027727 L35.1338152,33.993555 C35.4094011,34.2691409 35.4094011,34.7159539 35.1338159,34.9915406 C34.8811948,35.2441602 34.484696,35.2652119 34.2080959,35.0546949 L34.1358304,34.9915398 L32.3455909,33.2007727 L30.554696,34.9915398 C30.2791101,35.2671257 29.832297,35.2671257 29.5567112,34.9915398 C29.3086838,34.7435125 29.2838811,34.3567912 29.482303,34.0810251 L29.5567112,33.993555 L31.3475909,32.2027727 L29.5567112,30.4124206 C29.2811253,30.1368347 29.2811253,29.6900217 29.5567104,29.414435 C29.8093316,29.1618154 30.2058303,29.1407637 30.4824304,29.3512807 L30.554696,29.4144358 L32.3455909,31.2047727 L34.1358304,29.4144358 C34.4114163,29.1388499 34.8582293,29.1388499 35.1338152,29.4144358 Z"></path>
    <path d="M26.3926762,21.4689812 C26.6407035,21.7170085 26.6655063,22.1037298 26.4670844,22.3794959 L26.3926762,22.466966 L24.6015909,24.2567727 L26.3926762,26.0481004 C26.6682621,26.3236863 26.6682621,26.7704994 26.392677,27.046086 C26.1400558,27.2987056 25.7435571,27.3197573 25.466957,27.1092403 L25.3946914,27.0460852 L23.6035909,25.2547727 L21.813557,27.0460852 C21.5379711,27.3216711 21.0911581,27.3216711 20.8155722,27.0460852 C20.5675449,26.7980579 20.5427422,26.4113367 20.741164,26.1355706 L20.8155722,26.0481004 L22.6055909,24.2577727 L20.8155722,22.466966 C20.5399863,22.1913801 20.5399863,21.7445671 20.8155715,21.4689805 C21.0681926,21.2163608 21.4646914,21.1953091 21.7412915,21.4058261 L21.813557,21.4689812 L23.6035909,23.2597727 L25.3946914,21.4689812 C25.6702773,21.1933953 26.1170904,21.1933953 26.3926762,21.4689812 Z"></path>
    <path d="M33.5570247,11.8322794 C32.8374695,11.8270234 32.2278012,12.440542 32.2387586,13.1589313 C32.2495907,13.8734412 32.8419151,14.4508557 33.5590909,14.44585 C34.283843,14.4408442 34.8528751,13.8669962 34.85225,13.141724 C34.8516228,12.4225213 34.2730108,11.8375355 33.5570247,11.8322794 Z"></path>
    <path d="M13.2752065,11.8322794 C12.5556513,11.8270234 11.945983,12.440542 11.9569404,13.1589313 C11.9677725,13.8734412 12.5600969,14.4508557 13.2772727,14.44585 C14.0020248,14.4408442 14.5710569,13.8669962 14.5704318,13.141724 C14.5698046,12.4225213 13.9911926,11.8375355 13.2752065,11.8322794 Z"></path>
    <path d="M37.7409091,8.38977273 C38.9997365,8.38977273 40.0301489,9.36773394 40.1138311,10.6053413 L40.1193182,10.7681818 L40.1193182,36.6954545 C40.1193182,37.954282 39.141357,38.9846943 37.9037496,39.0683766 L37.7409091,39.0738636 L9.2,39.0738636 C7.94117256,39.0738636 6.9107602,38.0959024 6.82707796,36.858295 L6.82159091,36.6954545 L6.82159091,10.7681818 C6.82159091,9.50935438 7.79955213,8.47894202 9.03715951,8.39525978 L9.2,8.38977273 L37.7409091,8.38977273 Z M38.7075909,17.9547727 L8.23259091,17.9547727 L8.23295455,36.6954545 C8.23295455,37.1913901 8.60627296,37.6001325 9.08722207,37.655994 L9.2,37.6625 L37.7409091,37.6625 C38.2368447,37.6625 38.645587,37.2891816 38.7014485,36.8082325 L38.7079545,36.6954545 L38.7075909,17.9547727 Z M37.7409091,9.80113636 L9.2,9.80113636 C8.70406443,9.80113636 8.29532205,10.1744548 8.23946057,10.6554039 L8.23295455,10.7681818 L8.23259091,16.5437727 L38.7075909,16.5437727 L38.7079545,10.7681818 C38.7079545,10.2722463 38.3346361,9.86350387 37.853687,9.80764239 L37.7409091,9.80113636 Z"></path>
</svg>