<svg version="1.1" xmlns="http://www.w3.org/2000/svg" width="768" height="768" viewBox="0 0 768 768">
<path d="M723.566 340.127c8.644 70.401-3.655 138.547-32.016 198.187l68.423 131.363c4.082 7.837 1.039 17.5-6.798 21.582-2.868 1.494-6.121 2.084-9.332 1.692l-162.912-19.889c-48.432 36.039-106.603 60.371-170.808 68.255-197.341 24.23-376.959-116.103-401.189-313.444s116.103-376.959 313.444-401.189c197.341-24.23 376.959 116.103 401.189 313.444zM668.682 346.866c-20.509-167.029-172.537-285.807-339.567-265.299s-285.807 172.537-265.299 339.567c20.509 167.029 172.538 285.807 339.567 265.299 48.346-5.936 93.548-22.976 132.907-49.494l11.629-8.238 17.75-13.208 110.728 13.517-46.611-89.575 11.826-24.869c22.57-47.462 32.516-99.891 28.51-153.157l-1.44-14.545z"></path>
</svg>
