<svg version="1.1" xmlns="http://www.w3.org/2000/svg" width="768" height="768" viewBox="0 0 768 768">
<path d="M564.089 48c112.617 0 203.911 93.638 203.911 209.147 0 41.664-11.878 80.483-32.349 113.087l-3.821 5.398-5.563 6.846-7.234 8.242-19.187 20.469-32.082 32.532-40.018 39.505-180.111 175.751-61.425 60.721c-0.403 0.401-1.014 0.401-1.833 0l-121.016-116.465-104.591-102.009-54.506-54.248-29.501-30.097-21.64-22.888-9.211-10.272-6.381-7.676-2.682-3.676c-22.583-34.089-33.746-68.988-34.782-109.659l-0.071-5.564c0-115.509 91.294-209.147 203.912-209.147 78.020 0 145.806 44.942 180.092 110.964 34.279-66.022 102.065-110.964 180.085-110.964zM564.089 103.296c-55.207 0-105.205 31.448-131.009 81.148-20.639 39.752-77.506 39.755-98.149 0.004-25.812-49.704-75.812-81.152-131.018-81.152-78.941 0-143.987 63.925-148.384 144.458l-0.237 8.69 0.057 4.859c0.767 30.121 8.659 54.952 25.602 80.528l2.752 3.626 7.573 8.671 11.655 12.493 28.336 29.143 56.973 56.842 85.262 83.405 111.169 107.327 205.014-200.237 59.954-59.632 23.591-24.479 9.144-10.060 4.038-4.804 2.408-3.295c15.507-24.698 23.884-53.469 23.884-83.684 0-85.279-66.856-153.851-148.615-153.851z"></path>
</svg>
